<?plantuml 1.2026.2beta3?><svg xmlns="http://www.w3.org/2000/svg" xmlns:xlink="http://www.w3.org/1999/xlink" contentStyleType="text/css" data-diagram-type="TIMING" height="237px" preserveAspectRatio="none" style="width:627px;height:237px;background:#FFFFFF;" version="1.1" viewBox="0 0 627 237" width="627px" zoomAndPan="magnify"><defs/><g><line style="stroke:#000000;stroke-width:1;" x1="5" x2="5" y1="5" y2="213.1563"/><line style="stroke:#000000;stroke-width:1;" x1="620" x2="620" y1="5" y2="213.1563"/><line style="stroke:#000000;stroke-width:0.5;stroke-dasharray:3,5;" x1="15" x2="15" y1="5" y2="213.1563"/><line style="stroke:#000000;stroke-width:0.5;stroke-dasharray:3,5;" x1="65" x2="65" y1="5" y2="213.1563"/><line style="stroke:#000000;stroke-width:0.5;stroke-dasharray:3,5;" x1="115" x2="115" y1="5" y2="213.1563"/><line style="stroke:#000000;stroke-width:0.5;stroke-dasharray:3,5;" x1="165" x2="165" y1="5" y2="213.1563"/><line style="stroke:#000000;stroke-width:0.5;stroke-dasharray:3,5;" x1="215" x2="215" y1="5" y2="213.1563"/><line style="stroke:#000000;stroke-width:0.5;stroke-dasharray:3,5;" x1="265" x2="265" y1="5" y2="213.1563"/><line style="stroke:#000000;stroke-width:0.5;stroke-dasharray:3,5;" x1="315" x2="315" y1="5" y2="213.1563"/><line style="stroke:#000000;stroke-width:0.5;stroke-dasharray:3,5;" x1="365" x2="365" y1="5" y2="213.1563"/><line style="stroke:#000000;stroke-width:0.5;stroke-dasharray:3,5;" x1="415" x2="415" y1="5" y2="213.1563"/><line style="stroke:#000000;stroke-width:0.5;stroke-dasharray:3,5;" x1="465" x2="465" y1="5" y2="213.1563"/><line style="stroke:#000000;stroke-width:0.5;stroke-dasharray:3,5;" x1="515" x2="515" y1="5" y2="213.1563"/><line style="stroke:#000000;stroke-width:0.5;stroke-dasharray:3,5;" x1="565" x2="565" y1="5" y2="213.1563"/><line style="stroke:#000000;stroke-width:0.5;stroke-dasharray:3,5;" x1="615" x2="615" y1="5" y2="213.1563"/><line style="stroke:#000000;stroke-width:1;" x1="5" x2="620" y1="5" y2="5"/><text fill="#000000" font-family="Verdana" font-size="14" font-weight="bold" lengthAdjust="spacing" textLength="125.6104" x="10" y="17.9951">External trigger</text><line style="stroke:#000000;stroke-width:1;" x1="5" x2="136.6104" y1="22.2969" y2="22.2969"/><line style="stroke:#000000;stroke-width:1;" x1="136.6104" x2="146.6104" y1="22.2969" y2="5"/><line style="stroke:#000000;stroke-width:1;" x1="15" x2="15" y1="44.2969" y2="44.2969"/><line style="stroke:#000000;stroke-width:1;" x1="15" x2="15" y1="30.2969" y2="44.2969"/><line style="stroke:#000000;stroke-width:1;" x1="15" x2="65" y1="30.2969" y2="30.2969"/><line style="stroke:#000000;stroke-width:1;" x1="65" x2="65" y1="30.2969" y2="44.2969"/><line style="stroke:#000000;stroke-width:1;" x1="65" x2="215" y1="44.2969" y2="44.2969"/><line style="stroke:#000000;stroke-width:1;" x1="215" x2="215" y1="30.2969" y2="44.2969"/><line style="stroke:#000000;stroke-width:1;" x1="215" x2="315" y1="30.2969" y2="30.2969"/><line style="stroke:#000000;stroke-width:1;" x1="315" x2="315" y1="30.2969" y2="44.2969"/><line style="stroke:#000000;stroke-width:1;" x1="315" x2="415" y1="44.2969" y2="44.2969"/><line style="stroke:#000000;stroke-width:1;" x1="415" x2="415" y1="30.2969" y2="44.2969"/><line style="stroke:#000000;stroke-width:1;" x1="415" x2="465" y1="30.2969" y2="30.2969"/><line style="stroke:#000000;stroke-width:1;" x1="465" x2="465" y1="30.2969" y2="44.2969"/><line style="stroke:#000000;stroke-width:1;" x1="465" x2="615" y1="44.2969" y2="44.2969"/><line style="stroke:#000000;stroke-width:1;" x1="5" x2="620" y1="52.2969" y2="52.2969"/><text fill="#000000" font-family="Verdana" font-size="14" font-weight="bold" lengthAdjust="spacing" textLength="176.6475" x="10" y="65.292">Exposure (1: external)</text><line style="stroke:#000000;stroke-width:1;" x1="5" x2="187.6475" y1="69.5938" y2="69.5938"/><line style="stroke:#000000;stroke-width:1;" x1="187.6475" x2="197.6475" y1="69.5938" y2="52.2969"/><line style="stroke:#000000;stroke-width:1;" x1="15" x2="15" y1="110.5625" y2="110.5625"/><line style="stroke:#000000;stroke-width:1;" x1="15" x2="15" y1="96.5625" y2="110.5625"/><line style="stroke:#000000;stroke-width:1;" x1="15" x2="165" y1="96.5625" y2="96.5625"/><line style="stroke:#000000;stroke-width:1;" x1="165" x2="165" y1="96.5625" y2="110.5625"/><line style="stroke:#000000;stroke-width:1;" x1="165" x2="215" y1="110.5625" y2="110.5625"/><line style="stroke:#000000;stroke-width:1;" x1="215" x2="215" y1="96.5625" y2="110.5625"/><line style="stroke:#000000;stroke-width:1;" x1="215" x2="365" y1="96.5625" y2="96.5625"/><line style="stroke:#000000;stroke-width:1;" x1="365" x2="365" y1="96.5625" y2="110.5625"/><line style="stroke:#000000;stroke-width:1;" x1="365" x2="415" y1="110.5625" y2="110.5625"/><line style="stroke:#000000;stroke-width:1;" x1="415" x2="415" y1="96.5625" y2="110.5625"/><line style="stroke:#000000;stroke-width:1;" x1="415" x2="565" y1="96.5625" y2="96.5625"/><line style="stroke:#000000;stroke-width:1;" x1="565" x2="565" y1="96.5625" y2="110.5625"/><line style="stroke:#000000;stroke-width:1;" x1="565" x2="615" y1="110.5625" y2="110.5625"/><line style="stroke:#000000;stroke-width:1;" x1="167.5" x2="212.5" y1="88.5625" y2="88.5625"/><polygon fill="#000000" points="175.5,92.5625,175.5,84.5625,167.5,88.5625" style="stroke:#000000;stroke-width:1;"/><polygon fill="#000000" points="204.5,92.5625,204.5,84.5625,212.5,88.5625" style="stroke:#000000;stroke-width:1;"/><text fill="#000000" font-family="Verdana" font-size="12" lengthAdjust="spacing" textLength="29.959" x="175.0205" y="80.7324">Tmin</text><line style="stroke:#000000;stroke-width:1;" x1="5" x2="620" y1="118.5625" y2="118.5625"/><text fill="#000000" font-family="Verdana" font-size="14" font-weight="bold" lengthAdjust="spacing" textLength="197.8457" x="10" y="131.5576">Exposure (2: pulsewidth)</text><line style="stroke:#000000;stroke-width:1;" x1="5" x2="208.8457" y1="135.8594" y2="135.8594"/><line style="stroke:#000000;stroke-width:1;" x1="208.8457" x2="218.8457" y1="135.8594" y2="118.5625"/><line style="stroke:#000000;stroke-width:1;" x1="15" x2="15" y1="157.8594" y2="157.8594"/><line style="stroke:#000000;stroke-width:1;" x1="15" x2="15" y1="143.8594" y2="157.8594"/><line style="stroke:#000000;stroke-width:1;" x1="15" x2="65" y1="143.8594" y2="143.8594"/><line style="stroke:#000000;stroke-width:1;" x1="65" x2="65" y1="143.8594" y2="157.8594"/><line style="stroke:#000000;stroke-width:1;" x1="65" x2="215" y1="157.8594" y2="157.8594"/><line style="stroke:#000000;stroke-width:1;" x1="215" x2="215" y1="143.8594" y2="157.8594"/><line style="stroke:#000000;stroke-width:1;" x1="215" x2="315" y1="143.8594" y2="143.8594"/><line style="stroke:#000000;stroke-width:1;" x1="315" x2="315" y1="143.8594" y2="157.8594"/><line style="stroke:#000000;stroke-width:1;" x1="315" x2="415" y1="157.8594" y2="157.8594"/><line style="stroke:#000000;stroke-width:1;" x1="415" x2="415" y1="143.8594" y2="157.8594"/><line style="stroke:#000000;stroke-width:1;" x1="415" x2="465" y1="143.8594" y2="143.8594"/><line style="stroke:#000000;stroke-width:1;" x1="465" x2="465" y1="143.8594" y2="157.8594"/><line style="stroke:#000000;stroke-width:1;" x1="465" x2="615" y1="157.8594" y2="157.8594"/><line style="stroke:#000000;stroke-width:1;" x1="5" x2="620" y1="165.8594" y2="165.8594"/><text fill="#000000" font-family="Verdana" font-size="14" font-weight="bold" lengthAdjust="spacing" textLength="170.2285" x="10" y="178.8545">Exposure (8: overlap)</text><line style="stroke:#000000;stroke-width:1;" x1="5" x2="181.2285" y1="183.1563" y2="183.1563"/><line style="stroke:#000000;stroke-width:1;" x1="181.2285" x2="191.2285" y1="183.1563" y2="165.8594"/><line style="stroke:#000000;stroke-width:1;" x1="15" x2="15" y1="191.1563" y2="205.1563"/><line style="stroke:#000000;stroke-width:1;" x1="15" x2="213" y1="191.1563" y2="191.1563"/><line style="stroke:#000000;stroke-width:1;" x1="213" x2="213" y1="191.1563" y2="205.1563"/><line style="stroke:#000000;stroke-width:1;" x1="213" x2="215" y1="205.1563" y2="205.1563"/><line style="stroke:#000000;stroke-width:1;" x1="215" x2="215" y1="191.1563" y2="205.1563"/><line style="stroke:#000000;stroke-width:1;" x1="215" x2="413" y1="191.1563" y2="191.1563"/><line style="stroke:#000000;stroke-width:1;" x1="413" x2="413" y1="191.1563" y2="205.1563"/><line style="stroke:#000000;stroke-width:1;" x1="413" x2="415" y1="205.1563" y2="205.1563"/><line style="stroke:#000000;stroke-width:1;" x1="415" x2="415" y1="191.1563" y2="205.1563"/><line style="stroke:#000000;stroke-width:1;" x1="415" x2="613" y1="191.1563" y2="191.1563"/><line style="stroke:#000000;stroke-width:1;" x1="613" x2="613" y1="191.1563" y2="205.1563"/><line style="stroke:#000000;stroke-width:1;" x1="613" x2="615" y1="205.1563" y2="205.1563"/><line style="stroke:#000000;stroke-width:1;" x1="615" x2="615" y1="191.1563" y2="205.1563"/><line style="stroke:#000000;stroke-width:1;" x1="615" x2="615" y1="191.1563" y2="191.1563"/><line style="stroke:#000000;stroke-width:1;" x1="15" x2="15" y1="213.1563" y2="218.1563"/><line style="stroke:#000000;stroke-width:1;" x1="65" x2="65" y1="213.1563" y2="218.1563"/><line style="stroke:#000000;stroke-width:1;" x1="115" x2="115" y1="213.1563" y2="218.1563"/><line style="stroke:#000000;stroke-width:1;" x1="165" x2="165" y1="213.1563" y2="218.1563"/><line style="stroke:#000000;stroke-width:1;" x1="215" x2="215" y1="213.1563" y2="218.1563"/><line style="stroke:#000000;stroke-width:1;" x1="265" x2="265" y1="213.1563" y2="218.1563"/><line style="stroke:#000000;stroke-width:1;" x1="315" x2="315" y1="213.1563" y2="218.1563"/><line style="stroke:#000000;stroke-width:1;" x1="365" x2="365" y1="213.1563" y2="218.1563"/><line style="stroke:#000000;stroke-width:1;" x1="415" x2="415" y1="213.1563" y2="218.1563"/><line style="stroke:#000000;stroke-width:1;" x1="465" x2="465" y1="213.1563" y2="218.1563"/><line style="stroke:#000000;stroke-width:1;" x1="515" x2="515" y1="213.1563" y2="218.1563"/><line style="stroke:#000000;stroke-width:1;" x1="565" x2="565" y1="213.1563" y2="218.1563"/><line style="stroke:#000000;stroke-width:1;" x1="615" x2="615" y1="213.1563" y2="218.1563"/><line style="stroke:#000000;stroke-width:1;" x1="15" x2="615" y1="213.1563" y2="213.1563"/><text fill="#000000" font-family="Verdana" font-size="11" lengthAdjust="spacing" textLength="6.9985" x="11.5007" y="229.3667">0</text><text fill="#000000" font-family="Verdana" font-size="11" lengthAdjust="spacing" textLength="20.9956" x="54.5022" y="229.3667">250</text><text fill="#000000" font-family="Verdana" font-size="11" lengthAdjust="spacing" textLength="20.9956" x="154.5022" y="229.3667">750</text><text fill="#000000" font-family="Verdana" font-size="11" lengthAdjust="spacing" textLength="27.9941" x="201.0029" y="229.3667">1000</text><text fill="#000000" font-family="Verdana" font-size="11" lengthAdjust="spacing" textLength="27.9941" x="301.0029" y="229.3667">1500</text><text fill="#000000" font-family="Verdana" font-size="11" lengthAdjust="spacing" textLength="27.9941" x="351.0029" y="229.3667">1750</text><text fill="#000000" font-family="Verdana" font-size="11" lengthAdjust="spacing" textLength="27.9941" x="401.0029" y="229.3667">2000</text><text fill="#000000" font-family="Verdana" font-size="11" lengthAdjust="spacing" textLength="27.9941" x="451.0029" y="229.3667">2250</text><text fill="#000000" font-family="Verdana" font-size="11" lengthAdjust="spacing" textLength="27.9941" x="551.0029" y="229.3667">2750</text><?plantuml-src hP11IyCm68Rl-HMlFRc3a1Q6heoHov31OA9Ll6RRHnFCcf1crltxjN7LxE3Dd9Ayp_Va-t8J51q8paZTiArkf3yXMtu5yeqq25xNDVaCuv8jgkVLuqWEgBFjqHDkyn9qgPjaaLo-Lubov8eIxcXQwlG-g9ximQVNzGlR6Rlxk38-bB2Vv8rqa-po-EPj3NGwA3ZoskwHSyw_VPZDE6CYjiUXMoXTArPCuzxOZaLqlC-d_2Seqg18AfWOHlZDxl-I9S6rB0bwbHYEyxi5H2mlKHtwNsSYply_FPy1?></g></svg>