<?xml version="1.0" encoding="UTF-8" standalone="no"?><svg xmlns="http://www.w3.org/2000/svg" xmlns:xlink="http://www.w3.org/1999/xlink" contentStyleType="text/css" height="218px" preserveAspectRatio="none" style="width:722px;height:218px;background:#FFFFFF;" version="1.1" viewBox="0 0 722 218" width="722px" zoomAndPan="magnify"><defs/><g><line style="stroke:#000000;stroke-width:1.0;" x1="5" x2="5" y1="5" y2="193.0439"/><line style="stroke:#000000;stroke-width:1.0;" x1="715" x2="715" y1="5" y2="193.0439"/><line style="stroke:#000000;stroke-width:0.5;stroke-dasharray:3.0,5.0;" x1="210" x2="210" y1="5" y2="193.0439"/><line style="stroke:#000000;stroke-width:0.5;stroke-dasharray:3.0,5.0;" x1="260" x2="260" y1="5" y2="193.0439"/><line style="stroke:#000000;stroke-width:0.5;stroke-dasharray:3.0,5.0;" x1="310" x2="310" y1="5" y2="193.0439"/><line style="stroke:#000000;stroke-width:0.5;stroke-dasharray:3.0,5.0;" x1="360" x2="360" y1="5" y2="146.0439"/><line style="stroke:#000000;stroke-width:0.5;stroke-dasharray:3.0,5.0;" x1="410" x2="410" y1="5" y2="193.0439"/><line style="stroke:#000000;stroke-width:0.5;stroke-dasharray:3.0,5.0;" x1="460" x2="460" y1="5" y2="193.0439"/><line style="stroke:#000000;stroke-width:0.5;stroke-dasharray:3.0,5.0;" x1="510" x2="510" y1="5" y2="193.0439"/><line style="stroke:#000000;stroke-width:0.5;stroke-dasharray:3.0,5.0;" x1="560" x2="560" y1="5" y2="193.0439"/><line style="stroke:#000000;stroke-width:0.5;stroke-dasharray:3.0,5.0;" x1="610" x2="610" y1="5" y2="193.0439"/><line style="stroke:#000000;stroke-width:0.5;stroke-dasharray:3.0,5.0;" x1="660" x2="660" y1="5" y2="193.0439"/><line style="stroke:#000000;stroke-width:0.5;stroke-dasharray:3.0,5.0;" x1="710" x2="710" y1="5" y2="193.0439"/><line style="stroke:#000000;stroke-width:1.0;" x1="5" x2="715" y1="5" y2="5"/><text fill="#000000" font-family="Verdana" font-size="14" font-weight="bold" lengthAdjust="spacing" textLength="122" x="10" y="19.0752">External trigger</text><line style="stroke:#000000;stroke-width:1.0;" x1="5" x2="133" y1="23.0146" y2="23.0146"/><line style="stroke:#000000;stroke-width:1.0;" x1="133" x2="143" y1="23.0146" y2="5"/><line style="stroke:#000000;stroke-width:1.0;" x1="210" x2="210" y1="30.0146" y2="44.0146"/><line style="stroke:#000000;stroke-width:1.0;" x1="210" x2="260" y1="30.0146" y2="30.0146"/><line style="stroke:#000000;stroke-width:1.0;" x1="260" x2="260" y1="30.0146" y2="44.0146"/><line style="stroke:#000000;stroke-width:1.0;" x1="260" x2="410" y1="44.0146" y2="44.0146"/><line style="stroke:#000000;stroke-width:1.0;" x1="410" x2="410" y1="30.0146" y2="44.0146"/><line style="stroke:#000000;stroke-width:1.0;" x1="410" x2="460" y1="30.0146" y2="30.0146"/><line style="stroke:#000000;stroke-width:1.0;" x1="460" x2="460" y1="30.0146" y2="44.0146"/><line style="stroke:#000000;stroke-width:1.0;" x1="460" x2="610" y1="44.0146" y2="44.0146"/><line style="stroke:#000000;stroke-width:1.0;" x1="610" x2="610" y1="30.0146" y2="44.0146"/><line style="stroke:#000000;stroke-width:1.0;" x1="610" x2="660" y1="30.0146" y2="30.0146"/><line style="stroke:#000000;stroke-width:1.0;" x1="660" x2="660" y1="30.0146" y2="44.0146"/><line style="stroke:#000000;stroke-width:1.0;" x1="660" x2="710" y1="44.0146" y2="44.0146"/><line style="stroke:#000000;stroke-width:1.0;" x1="5" x2="715" y1="52.0146" y2="52.0146"/><text fill="#000000" font-family="Verdana" font-size="14" font-weight="bold" lengthAdjust="spacing" textLength="178" x="10" y="66.0898">Exposure (1: external)</text><text fill="#000000" font-family="Verdana" font-size="14" font-weight="bold" lengthAdjust="spacing" textLength="40" x="365" y="89.0293">Tmin*</text><text fill="#000000" font-family="Verdana" font-size="14" font-weight="bold" lengthAdjust="spacing" textLength="40" x="565" y="89.0293">Tmin*</text><line style="stroke:#000000;stroke-width:1.0;" x1="5" x2="189" y1="70.0293" y2="70.0293"/><line style="stroke:#000000;stroke-width:1.0;" x1="189" x2="199" y1="70.0293" y2="52.0146"/><line style="stroke:#000000;stroke-width:1.0;" x1="210" x2="210" y1="77.0293" y2="91.0293"/><line style="stroke:#000000;stroke-width:1.0;" x1="210" x2="360" y1="77.0293" y2="77.0293"/><line style="stroke:#000000;stroke-width:1.0;" x1="360" x2="360" y1="77.0293" y2="91.0293"/><line style="stroke:#000000;stroke-width:1.0;" x1="360" x2="410" y1="91.0293" y2="91.0293"/><line style="stroke:#000000;stroke-width:1.0;" x1="410" x2="410" y1="77.0293" y2="91.0293"/><line style="stroke:#000000;stroke-width:1.0;" x1="410" x2="560" y1="77.0293" y2="77.0293"/><line style="stroke:#000000;stroke-width:1.0;" x1="560" x2="560" y1="77.0293" y2="91.0293"/><line style="stroke:#000000;stroke-width:1.0;" x1="560" x2="610" y1="91.0293" y2="91.0293"/><line style="stroke:#000000;stroke-width:1.0;" x1="610" x2="610" y1="77.0293" y2="91.0293"/><line style="stroke:#000000;stroke-width:1.0;" x1="610" x2="710" y1="77.0293" y2="77.0293"/><line style="stroke:#000000;stroke-width:1.0;" x1="5" x2="715" y1="99.0293" y2="99.0293"/><text fill="#000000" font-family="Verdana" font-size="14" font-weight="bold" lengthAdjust="spacing" textLength="200" x="10" y="113.1045">Exposure (2: pulsewidth)</text><line style="stroke:#000000;stroke-width:1.0;" x1="5" x2="211" y1="117.0439" y2="117.0439"/><line style="stroke:#000000;stroke-width:1.0;" x1="211" x2="221" y1="117.0439" y2="99.0293"/><line style="stroke:#000000;stroke-width:1.0;" x1="210" x2="210" y1="124.0439" y2="138.0439"/><line style="stroke:#000000;stroke-width:1.0;" x1="210" x2="285" y1="124.0439" y2="124.0439"/><line style="stroke:#000000;stroke-width:1.0;" x1="285" x2="285" y1="124.0439" y2="138.0439"/><line style="stroke:#000000;stroke-width:1.0;" x1="285" x2="410" y1="138.0439" y2="138.0439"/><line style="stroke:#000000;stroke-width:1.0;" x1="410" x2="410" y1="124.0439" y2="138.0439"/><line style="stroke:#000000;stroke-width:1.0;" x1="410" x2="445" y1="124.0439" y2="124.0439"/><line style="stroke:#000000;stroke-width:1.0;" x1="445" x2="445" y1="124.0439" y2="138.0439"/><line style="stroke:#000000;stroke-width:1.0;" x1="445" x2="610" y1="138.0439" y2="138.0439"/><line style="stroke:#000000;stroke-width:1.0;" x1="610" x2="610" y1="124.0439" y2="138.0439"/><line style="stroke:#000000;stroke-width:1.0;" x1="610" x2="660" y1="124.0439" y2="124.0439"/><line style="stroke:#000000;stroke-width:1.0;" x1="660" x2="660" y1="124.0439" y2="138.0439"/><line style="stroke:#000000;stroke-width:1.0;" x1="660" x2="710" y1="138.0439" y2="138.0439"/><text fill="#000000" font-family="Verdana" font-size="14" font-weight="bold" lengthAdjust="spacing" textLength="174" x="10" y="160.1191">Exposure (8: overlap)</text><text fill="#000000" font-family="Verdana" font-size="14" font-weight="bold" lengthAdjust="spacing" textLength="48" x="415" y="183.0293">Tmin**</text><text fill="#000000" font-family="Verdana" font-size="14" font-weight="bold" lengthAdjust="spacing" textLength="48" x="615" y="183.0293">Tmin**</text><line style="stroke:#000000;stroke-width:1.0;" x1="5" x2="185" y1="164.0293" y2="164.0293"/><line style="stroke:#000000;stroke-width:1.0;" x1="185" x2="195" y1="164.0293" y2="146.0146"/><line style="stroke:#000000;stroke-width:1.0;" x1="210" x2="210" y1="171.0293" y2="185.0293"/><line style="stroke:#000000;stroke-width:1.0;" x1="210" x2="405" y1="171.0293" y2="171.0293"/><line style="stroke:#000000;stroke-width:1.0;" x1="405" x2="405" y1="171.0293" y2="185.0293"/><line style="stroke:#000000;stroke-width:1.0;" x1="405" x2="410" y1="185.0293" y2="185.0293"/><line style="stroke:#000000;stroke-width:1.0;" x1="410" x2="410" y1="171.0293" y2="185.0293"/><line style="stroke:#000000;stroke-width:1.0;" x1="410" x2="605" y1="171.0293" y2="171.0293"/><line style="stroke:#000000;stroke-width:1.0;" x1="605" x2="605" y1="171.0293" y2="185.0293"/><line style="stroke:#000000;stroke-width:1.0;" x1="605" x2="610" y1="185.0293" y2="185.0293"/><line style="stroke:#000000;stroke-width:1.0;" x1="610" x2="610" y1="171.0293" y2="185.0293"/><line style="stroke:#000000;stroke-width:1.0;" x1="610" x2="710" y1="171.0293" y2="171.0293"/><line style="stroke:#000000;stroke-width:1.0;" x1="5" x2="715" y1="146.0293" y2="146.0293"/><line style="stroke:#000000;stroke-width:2.0;" x1="210" x2="210" y1="193.0439" y2="198.0439"/><line style="stroke:#000000;stroke-width:2.0;" x1="260" x2="260" y1="193.0439" y2="198.0439"/><line style="stroke:#000000;stroke-width:2.0;" x1="310" x2="310" y1="193.0439" y2="198.0439"/><line style="stroke:#000000;stroke-width:2.0;" x1="360" x2="360" y1="193.0439" y2="198.0439"/><line style="stroke:#000000;stroke-width:2.0;" x1="410" x2="410" y1="193.0439" y2="198.0439"/><line style="stroke:#000000;stroke-width:2.0;" x1="460" x2="460" y1="193.0439" y2="198.0439"/><line style="stroke:#000000;stroke-width:2.0;" x1="510" x2="510" y1="193.0439" y2="198.0439"/><line style="stroke:#000000;stroke-width:2.0;" x1="560" x2="560" y1="193.0439" y2="198.0439"/><line style="stroke:#000000;stroke-width:2.0;" x1="610" x2="610" y1="193.0439" y2="198.0439"/><line style="stroke:#000000;stroke-width:2.0;" x1="660" x2="660" y1="193.0439" y2="198.0439"/><line style="stroke:#000000;stroke-width:2.0;" x1="710" x2="710" y1="193.0439" y2="198.0439"/><line style="stroke:#000000;stroke-width:2.0;" x1="210" x2="710" y1="193.0439" y2="193.0439"/><text fill="#000000" font-family="Verdana" font-size="11" lengthAdjust="spacing" textLength="7" x="206.5" y="210.103">0</text><text fill="#000000" font-family="Verdana" font-size="11" lengthAdjust="spacing" textLength="28" x="396" y="210.103">1000</text><text fill="#000000" font-family="Verdana" font-size="11" lengthAdjust="spacing" textLength="28" x="646" y="210.103">2250</text><!--MD5=[6bd7d737d483774295b987f55cbb84ba]
@startuml
!theme plain
clock "External trigger"         as TRIG with period 1000 pulse 250
clock "Exposure (1: external)"   as EXT  with period 1000 pulse 750
clock "Exposure (2: pulsewidth)" as PULS with period 1000 pulse 250
clock "Exposure (8: overlap)"    as OVL  with period 1000 pulse 750

@0
@2250

@enduml

@startuml







<style>
  root {
    BackgroundColor white
    FontColor black
    FontName Verdana
    HyperLinkColor blue
    LineColor black
    LineThickness 1
    Margin 5
  }
  caption {
    LineThickness 0
  }
  footer {
    LineThickness 0
  }
  header {
    LineThickness 0
  }
  node {
    MaximumWidth 300
  }
  title {
    FontSize 22
    LineThickness 0
  }
</style>

skinparam ArrowLollipopColor black
skinparam BackgroundColor white
skinparam DefaultFontName Verdana
skinparam DefaultMonospacedFontName Courier
skinparam LifelineStrategy nosolid
skinparam ParticipantPadding 10
skinparam SequenceLifeLineBorderColor black
skinparam Shadowing false
skinparam UseBetaStyle true

skinparam Activity {
  BackgroundColor white
  BarColor black
  BorderColor black
  FontColor black
  FontName Verdana
}
skinparam Boundary {
  FontColor black
}
skinparam Box {
  Padding 5
}
skinparam CircledCharacter {
  FontColor black
  FontName Courier
  Radius 9
}
skinparam Class {
  BackgroundColor white
  BorderColor black
  FontColor black
  FontName Verdana
}
skinparam ClassAttribute {
  FontColor black
  FontName Verdana
}
skinparam ClassStereotype {
  FontColor black
  FontName Verdana
}
skinparam Footer {
  FontColor black
  FontName Verdana
}
skinparam Header {
  FontColor black
  FontName Verdana
}
skinparam Hyperlink {
  Color blue
}
skinparam IconPackage {
  Color black
  BackgroundColor white
}
skinparam IconPrivate {
  Color black
  BackgroundColor white
}
skinparam IconProtected {
  Color black
  BackgroundColor white
}
skinparam IconPublic {
  Color black
  BackgroundColor white
}
skinparam Note {
  FontColor black
  FontName Verdana
}
skinparam Object {
  BorderColor black
}
skinparam Package {
  BorderColor black
  FontColor black
  FontName Verdana
}
skinparam State {
  BackgroundColor white
  BorderColor black
}
skinparam StereotypeA {
  BackgroundColor white
  BorderColor black
}
skinparam StereotypeC {
  BackgroundColor white
  BorderColor black
}
skinparam StereotypeE {
  BackgroundColor white
  BorderColor black
}
skinparam StereotypeI {
  BackgroundColor white
  BorderColor black
}
skinparam StereotypeN {
  BackgroundColor white
  BorderColor black
}
skinparam UseCaseStereoType {
  FontColor black
  FontName Verdana
}
clock "External trigger"         as TRIG with period 1000 pulse 250
clock "Exposure (1: external)"   as EXT  with period 1000 pulse 750
clock "Exposure (2: pulsewidth)" as PULS with period 1000 pulse 250
clock "Exposure (8: overlap)"    as OVL  with period 1000 pulse 750

@0
@2250

@enduml

PlantUML version 1.2022.5(Sat Apr 30 12:55:52 CEST 2022)
(GPL source distribution)
Java Runtime: OpenJDK Runtime Environment
JVM: OpenJDK 64-Bit Server VM
Default Encoding: UTF-8
Language: en
Country: US
--></g></svg>