<?xml version="1.0" encoding="UTF-8" standalone="no"?><svg xmlns="http://www.w3.org/2000/svg" xmlns:xlink="http://www.w3.org/1999/xlink" contentStyleType="text/css" height="124px" preserveAspectRatio="none" style="width:730px;height:124px;background:#FFFFFF;" version="1.1" viewBox="0 0 730 124" width="730px" zoomAndPan="magnify"><defs/><g><line style="stroke:#000000;stroke-width:1.0;" x1="5" x2="5" y1="5" y2="99.0293"/><line style="stroke:#000000;stroke-width:1.0;" x1="723" x2="723" y1="5" y2="99.0293"/><line style="stroke:#000000;stroke-width:0.5;stroke-dasharray:3.0,5.0;" x1="218" x2="218" y1="5" y2="99.0293"/><line style="stroke:#000000;stroke-width:0.5;stroke-dasharray:3.0,5.0;" x1="268" x2="268" y1="5" y2="99.0293"/><line style="stroke:#000000;stroke-width:0.5;stroke-dasharray:3.0,5.0;" x1="318" x2="318" y1="5" y2="99.0293"/><line style="stroke:#000000;stroke-width:0.5;stroke-dasharray:3.0,5.0;" x1="368" x2="368" y1="5" y2="99.0293"/><line style="stroke:#000000;stroke-width:0.5;stroke-dasharray:3.0,5.0;" x1="418" x2="418" y1="5" y2="99.0293"/><line style="stroke:#000000;stroke-width:0.5;stroke-dasharray:3.0,5.0;" x1="468" x2="468" y1="5" y2="99.0293"/><line style="stroke:#000000;stroke-width:0.5;stroke-dasharray:3.0,5.0;" x1="518" x2="518" y1="5" y2="99.0293"/><line style="stroke:#000000;stroke-width:0.5;stroke-dasharray:3.0,5.0;" x1="568" x2="568" y1="5" y2="99.0293"/><line style="stroke:#000000;stroke-width:0.5;stroke-dasharray:3.0,5.0;" x1="618" x2="618" y1="5" y2="99.0293"/><line style="stroke:#000000;stroke-width:0.5;stroke-dasharray:3.0,5.0;" x1="668" x2="668" y1="5" y2="99.0293"/><line style="stroke:#000000;stroke-width:0.5;stroke-dasharray:3.0,5.0;" x1="718" x2="718" y1="5" y2="99.0293"/><line style="stroke:#000000;stroke-width:1.0;" x1="5" x2="723" y1="5" y2="5"/><text fill="#000000" font-family="Verdana" font-size="14" font-weight="bold" lengthAdjust="spacing" textLength="208" x="10" y="19.0752">External trigger is disabled</text><line style="stroke:#000000;stroke-width:1.0;" x1="5" x2="219" y1="23.0146" y2="23.0146"/><line style="stroke:#000000;stroke-width:1.0;" x1="219" x2="229" y1="23.0146" y2="5"/><line style="stroke:#000000;stroke-width:1.0;" x1="218" x2="218" y1="30.0146" y2="44.0146"/><line style="stroke:#000000;stroke-width:1.0;" x1="218" x2="268" y1="30.0146" y2="30.0146"/><line style="stroke:#000000;stroke-width:1.0;" x1="268" x2="268" y1="30.0146" y2="44.0146"/><line style="stroke:#000000;stroke-width:1.0;" x1="268" x2="418" y1="44.0146" y2="44.0146"/><line style="stroke:#000000;stroke-width:1.0;" x1="418" x2="418" y1="30.0146" y2="44.0146"/><line style="stroke:#000000;stroke-width:1.0;" x1="418" x2="468" y1="30.0146" y2="30.0146"/><line style="stroke:#000000;stroke-width:1.0;" x1="468" x2="468" y1="30.0146" y2="44.0146"/><line style="stroke:#000000;stroke-width:1.0;" x1="468" x2="618" y1="44.0146" y2="44.0146"/><line style="stroke:#000000;stroke-width:1.0;" x1="618" x2="618" y1="30.0146" y2="44.0146"/><line style="stroke:#000000;stroke-width:1.0;" x1="618" x2="668" y1="30.0146" y2="30.0146"/><line style="stroke:#000000;stroke-width:1.0;" x1="668" x2="668" y1="30.0146" y2="44.0146"/><line style="stroke:#000000;stroke-width:1.0;" x1="668" x2="718" y1="44.0146" y2="44.0146"/><line style="stroke:#000000;stroke-width:1.0;" x1="5" x2="723" y1="52.0146" y2="52.0146"/><text fill="#000000" font-family="Verdana" font-size="14" font-weight="bold" lengthAdjust="spacing" textLength="142" x="10" y="66.0898">Exposure (3: self)</text><line style="stroke:#000000;stroke-width:1.0;" x1="5" x2="153" y1="70.0293" y2="70.0293"/><line style="stroke:#000000;stroke-width:1.0;" x1="153" x2="163" y1="70.0293" y2="52.0146"/><line style="stroke:#000000;stroke-width:1.0;" x1="218" x2="218" y1="77.0293" y2="91.0293"/><line style="stroke:#000000;stroke-width:1.0;" x1="218" x2="288" y1="77.0293" y2="77.0293"/><line style="stroke:#000000;stroke-width:1.0;" x1="288" x2="288" y1="77.0293" y2="91.0293"/><line style="stroke:#000000;stroke-width:1.0;" x1="288" x2="332" y1="91.0293" y2="91.0293"/><line style="stroke:#000000;stroke-width:1.0;" x1="332" x2="332" y1="77.0293" y2="91.0293"/><line style="stroke:#000000;stroke-width:1.0;" x1="332" x2="402" y1="77.0293" y2="77.0293"/><line style="stroke:#000000;stroke-width:1.0;" x1="402" x2="402" y1="77.0293" y2="91.0293"/><line style="stroke:#000000;stroke-width:1.0;" x1="402" x2="446" y1="91.0293" y2="91.0293"/><line style="stroke:#000000;stroke-width:1.0;" x1="446" x2="446" y1="77.0293" y2="91.0293"/><line style="stroke:#000000;stroke-width:1.0;" x1="446" x2="516" y1="77.0293" y2="77.0293"/><line style="stroke:#000000;stroke-width:1.0;" x1="516" x2="516" y1="77.0293" y2="91.0293"/><line style="stroke:#000000;stroke-width:1.0;" x1="516" x2="560" y1="91.0293" y2="91.0293"/><line style="stroke:#000000;stroke-width:1.0;" x1="560" x2="560" y1="77.0293" y2="91.0293"/><line style="stroke:#000000;stroke-width:1.0;" x1="560" x2="630" y1="77.0293" y2="77.0293"/><line style="stroke:#000000;stroke-width:1.0;" x1="630" x2="630" y1="77.0293" y2="91.0293"/><line style="stroke:#000000;stroke-width:1.0;" x1="630" x2="674" y1="91.0293" y2="91.0293"/><line style="stroke:#000000;stroke-width:1.0;" x1="674" x2="674" y1="77.0293" y2="91.0293"/><line style="stroke:#000000;stroke-width:1.0;" x1="674" x2="718" y1="77.0293" y2="77.0293"/><line style="stroke:#000000;stroke-width:2.0;" x1="218" x2="218" y1="99.0293" y2="104.0293"/><line style="stroke:#000000;stroke-width:2.0;" x1="268" x2="268" y1="99.0293" y2="104.0293"/><line style="stroke:#000000;stroke-width:2.0;" x1="318" x2="318" y1="99.0293" y2="104.0293"/><line style="stroke:#000000;stroke-width:2.0;" x1="368" x2="368" y1="99.0293" y2="104.0293"/><line style="stroke:#000000;stroke-width:2.0;" x1="418" x2="418" y1="99.0293" y2="104.0293"/><line style="stroke:#000000;stroke-width:2.0;" x1="468" x2="468" y1="99.0293" y2="104.0293"/><line style="stroke:#000000;stroke-width:2.0;" x1="518" x2="518" y1="99.0293" y2="104.0293"/><line style="stroke:#000000;stroke-width:2.0;" x1="568" x2="568" y1="99.0293" y2="104.0293"/><line style="stroke:#000000;stroke-width:2.0;" x1="618" x2="618" y1="99.0293" y2="104.0293"/><line style="stroke:#000000;stroke-width:2.0;" x1="668" x2="668" y1="99.0293" y2="104.0293"/><line style="stroke:#000000;stroke-width:2.0;" x1="718" x2="718" y1="99.0293" y2="104.0293"/><line style="stroke:#000000;stroke-width:2.0;" x1="218" x2="718" y1="99.0293" y2="99.0293"/><text fill="#000000" font-family="Verdana" font-size="11" lengthAdjust="spacing" textLength="7" x="214.5" y="116.0884">0</text><text fill="#000000" font-family="Verdana" font-size="11" lengthAdjust="spacing" textLength="21" x="321.5" y="116.0884">570</text><text fill="#000000" font-family="Verdana" font-size="11" lengthAdjust="spacing" textLength="28" x="404" y="116.0884">1000</text><text fill="#000000" font-family="Verdana" font-size="11" lengthAdjust="spacing" textLength="28" x="654" y="116.0884">2250</text><!--MD5=[142a5c4293581761bca583cf84161bdb]
@startuml
!theme plain
clock "External trigger is disabled" as TRIG with period 1000 pulse 250
clock "Exposure (3: self)"           as SELF with period 570 pulse 350 offset 0

@0
@2250

@enduml

@startuml







<style>
  root {
    BackgroundColor white
    FontColor black
    FontName Verdana
    HyperLinkColor blue
    LineColor black
    LineThickness 1
    Margin 5
  }
  caption {
    LineThickness 0
  }
  footer {
    LineThickness 0
  }
  header {
    LineThickness 0
  }
  node {
    MaximumWidth 300
  }
  title {
    FontSize 22
    LineThickness 0
  }
</style>

skinparam ArrowLollipopColor black
skinparam BackgroundColor white
skinparam DefaultFontName Verdana
skinparam DefaultMonospacedFontName Courier
skinparam LifelineStrategy nosolid
skinparam ParticipantPadding 10
skinparam SequenceLifeLineBorderColor black
skinparam Shadowing false
skinparam UseBetaStyle true

skinparam Activity {
  BackgroundColor white
  BarColor black
  BorderColor black
  FontColor black
  FontName Verdana
}
skinparam Boundary {
  FontColor black
}
skinparam Box {
  Padding 5
}
skinparam CircledCharacter {
  FontColor black
  FontName Courier
  Radius 9
}
skinparam Class {
  BackgroundColor white
  BorderColor black
  FontColor black
  FontName Verdana
}
skinparam ClassAttribute {
  FontColor black
  FontName Verdana
}
skinparam ClassStereotype {
  FontColor black
  FontName Verdana
}
skinparam Footer {
  FontColor black
  FontName Verdana
}
skinparam Header {
  FontColor black
  FontName Verdana
}
skinparam Hyperlink {
  Color blue
}
skinparam IconPackage {
  Color black
  BackgroundColor white
}
skinparam IconPrivate {
  Color black
  BackgroundColor white
}
skinparam IconProtected {
  Color black
  BackgroundColor white
}
skinparam IconPublic {
  Color black
  BackgroundColor white
}
skinparam Note {
  FontColor black
  FontName Verdana
}
skinparam Object {
  BorderColor black
}
skinparam Package {
  BorderColor black
  FontColor black
  FontName Verdana
}
skinparam State {
  BackgroundColor white
  BorderColor black
}
skinparam StereotypeA {
  BackgroundColor white
  BorderColor black
}
skinparam StereotypeC {
  BackgroundColor white
  BorderColor black
}
skinparam StereotypeE {
  BackgroundColor white
  BorderColor black
}
skinparam StereotypeI {
  BackgroundColor white
  BorderColor black
}
skinparam StereotypeN {
  BackgroundColor white
  BorderColor black
}
skinparam UseCaseStereoType {
  FontColor black
  FontName Verdana
}
clock "External trigger is disabled" as TRIG with period 1000 pulse 250
clock "Exposure (3: self)"           as SELF with period 570 pulse 350 offset 0

@0
@2250

@enduml

PlantUML version 1.2022.5(Sat Apr 30 12:55:52 CEST 2022)
(GPL source distribution)
Java Runtime: OpenJDK Runtime Environment
JVM: OpenJDK 64-Bit Server VM
Default Encoding: UTF-8
Language: en
Country: US
--></g></svg>